<?xml version="1.0" standalone="no"?>
<!DOCTYPE svg PUBLIC "-//W3C//DTD SVG 20010904//EN"
 "http://www.w3.org/TR/2001/REC-SVG-20010904/DTD/svg10.dtd">
<svg version="1.0" xmlns="http://www.w3.org/2000/svg"
 width="140.000000pt" height="140.000000pt" viewBox="0 0 140.000000 140.000000"
 preserveAspectRatio="xMidYMid meet">
<metadata>
Created by potrace 1.14, written by Peter Selinger 2001-2017
</metadata>
<g transform="translate(0.000000,140.000000) scale(0.100000,-0.100000)"
fill="#000000" stroke="none">
<path d="M624 1244 c-6 -3 -10 -18 -8 -35 3 -22 -1 -31 -14 -35 -9 -3 -38 -13
-63 -23 l-45 -18 -17 29 c-19 34 -39 36 -66 7 -23 -25 -14 -53 20 -64 16 -5
19 -12 14 -28 -14 -47 -54 -204 -58 -232 -3 -16 -12 -61 -20 -100 -22 -100
-28 -149 -32 -245 -4 -79 -6 -85 -27 -88 -43 -7 -60 -59 -39 -115 13 -34 57
-50 97 -36 16 6 31 -2 62 -31 23 -21 42 -43 42 -49 0 -7 19 -20 43 -30 49 -20
168 -23 175 -3 2 7 -1 12 -7 12 -6 0 -11 4 -11 8 0 4 16 9 35 10 33 2 76 16
140 43 18 7 62 11 111 10 86 -3 110 7 68 29 -20 11 -24 19 -19 42 8 36 -10 90
-38 114 -16 15 -26 40 -35 95 l-13 75 49 52 48 51 74 3 c81 3 98 15 86 61 -9
37 -107 132 -160 157 -55 25 -81 25 -98 2 -7 -10 -22 -21 -33 -24 -11 -3 -27
-9 -36 -12 -12 -5 -23 17 -54 115 -38 120 -70 183 -93 185 -7 1 -16 2 -21 3
-5 0 -7 9 -4 20 2 10 -3 25 -12 35 -17 16 -22 18 -41 10z"/>
</g>
</svg>
