<?xml version="1.0" standalone="no"?>
<!DOCTYPE svg PUBLIC "-//W3C//DTD SVG 20010904//EN"
 "http://www.w3.org/TR/2001/REC-SVG-20010904/DTD/svg10.dtd">
<svg version="1.0" xmlns="http://www.w3.org/2000/svg"
 width="500.000000pt" height="500.000000pt" viewBox="0 0 500.000000 500.000000"
 preserveAspectRatio="xMidYMid meet">

<g transform="translate(0.000000,500.000000) scale(0.100000,-0.100000)"
fill="#000000" stroke="none">
<path d="M740 3595 c0 -64 0 -65 28 -66 15 0 -16 -10 -68 -23 -52 -12 -121
-34 -154 -49 -64 -29 -76 -32 -76 -17 0 29 -44 101 -65 106 -47 12 -115 -47
-115 -100 0 -27 30 -55 80 -76 34 -14 36 -23 14 -76 -33 -80 -148 -593 -184
-824 -7 -41 -16 -100 -22 -130 -5 -30 -12 -135 -15 -232 l-6 -176 -23 8 c-34
13 -80 -6 -103 -43 -88 -143 50 -328 192 -258 l42 21 45 -44 c25 -23 60 -53
78 -65 17 -12 32 -31 32 -42 0 -33 71 -94 126 -108 27 -7 51 -16 54 -19 3 -4
67 -6 143 -4 153 4 171 14 95 53 l-43 22 107 18 c125 21 241 58 316 100 39 22
59 28 80 23 15 -4 29 -10 32 -14 3 -4 67 -5 143 -2 154 5 170 15 89 54 l-48
23 0 80 c1 75 -1 83 -32 127 -28 41 -58 68 -75 68 -2 0 -7 -33 -11 -72 -8 -81
-23 -138 -37 -138 -5 0 -9 5 -9 10 0 6 -8 10 -17 10 -15 0 -15 2 -4 9 11 7 9
10 -10 13 -18 2 -23 8 -21 25 2 14 -4 23 -18 28 -11 3 -20 15 -20 25 0 14 5
18 18 14 14 -5 14 -4 3 4 -9 7 -21 7 -32 2 -17 -10 -29 -4 -29 14 0 6 5 4 10
-4 8 -13 10 -12 10 3 0 9 -4 17 -10 17 -5 0 -10 8 -10 19 0 10 -6 24 -14 30
-8 7 -13 21 -11 31 2 12 -1 17 -9 14 -8 -3 -16 3 -20 13 -6 15 -9 15 -17 3 -9
-13 -10 -13 -6 0 2 8 11 14 20 14 15 -2 15 1 -10 45 -2 2 -9 -1 -16 -7 -11 -9
-13 -6 -9 17 2 16 0 31 -6 35 -5 3 -8 -6 -6 -22 2 -18 -1 -14 -9 12 -8 22 -19
42 -25 44 -7 2 -12 11 -12 20 0 15 2 15 10 2 7 -10 10 -11 10 -2 0 7 -8 16
-17 19 -15 6 -15 7 3 14 16 6 15 8 -8 8 -20 1 -28 6 -28 19 0 11 -3 13 -8 5
-4 -6 -7 7 -7 29 l0 41 82 38 c56 26 84 44 85 56 1 10 2 25 4 33 1 8 2 23 3
33 1 15 9 18 53 15 l53 -3 15 -70 c12 -50 20 -69 31 -67 17 3 163 151 156 159
-3 3 -99 0 -213 -6 -296 -16 -389 -15 -408 5 -19 19 -22 48 -3 38 10 -6 10 -4
0 7 -7 7 -13 16 -13 21 0 4 38 31 85 59 47 29 85 54 85 56 0 5 -107 -54 -127
-70 -7 -5 -13 -6 -13 -1 0 5 -4 3 -9 -5 -6 -9 -12 4 -21 40 -7 30 -21 67 -31
83 -16 27 -17 32 -2 60 20 40 71 94 105 112 38 20 97 17 135 -6 30 -18 83 -88
83 -109 0 -6 -25 -29 -55 -52 -64 -49 -75 -65 -12 -19 48 35 118 95 100 86 -8
-5 -19 17 -33 66 -12 40 -37 122 -56 183 -20 60 -39 128 -44 150 -45 212 -98
298 -204 331 -22 7 -36 13 -30 13 6 1 17 21 24 46 11 41 11 48 -5 65 -13 14
-31 20 -62 20 l-43 0 0 -65z m195 -280 c-38 -27 -44 -35 -38 -50 13 -35 104
-60 117 -32 3 6 3 -10 0 -38 -7 -60 -10 -64 -57 -72 -31 -5 -37 -3 -37 12 0
13 -3 15 -13 7 -16 -14 -70 -9 -75 7 -2 6 -16 11 -31 11 -15 0 -32 5 -39 12
-9 9 -12 9 -12 -1 0 -11 -3 -11 -14 -2 -18 15 -13 64 9 98 19 28 50 41 125 52
83 13 88 12 65 -4z m-182 -665 c70 -40 124 -76 121 -81 -9 -16 -28 -9 -99 36
-102 65 -156 92 -199 100 -27 6 -34 10 -24 17 26 17 76 -1 201 -72z m-53 -885
c28 -14 76 -72 68 -80 -2 -3 -20 11 -38 30 -19 19 -39 35 -46 35 -6 0 -17 7
-24 15 -17 20 1 20 40 0z"/>
<path d="M2949 2864 c-20 -21 -24 -36 -24 -82 1 -47 9 -76 48 -158 38 -81 48
-113 48 -155 1 -91 -29 -137 -78 -118 -13 5 -25 4 -28 -1 -12 -19 6 -30 46
-30 30 0 46 6 64 26 53 57 47 152 -18 291 -65 138 -64 223 3 223 32 0 40 14
14 24 -30 11 -51 6 -75 -20z"/>
<path d="M3287 2882 c-4 -5 -2 -49 4 -98 6 -49 9 -169 7 -266 -1 -97 0 -180 4
-183 4 -4 12 -4 18 0 8 5 11 46 9 126 l-2 120 30 32 c17 18 35 41 40 52 30 61
21 143 -20 190 -23 26 -80 44 -90 27z m68 -57 c42 -41 31 -153 -19 -194 -14
-12 -16 -4 -16 72 0 46 -3 99 -6 116 -8 38 7 41 41 6z"/>
<path d="M3702 2883 c-44 -6 -36 -27 11 -31 20 -2 37 -7 37 -12 0 -63 -55
-396 -76 -459 -7 -25 -14 -46 -14 -48 0 -2 26 -3 58 -1 62 3 74 21 16 26 -28
3 -34 7 -29 20 21 56 67 329 68 412 2 105 4 103 -71 93z"/>
<path d="M3892 2883 c-44 -6 -36 -27 11 -31 45 -4 45 -2 16 -196 -17 -120 -27
-172 -56 -303 -5 -22 -2 -23 52 -23 41 0 56 3 53 13 -3 6 -20 13 -40 15 l-35
3 18 77 c31 130 59 311 59 383 0 76 6 72 -78 62z"/>
<path d="M4336 2882 c-2 -4 -5 -128 -7 -277 -4 -235 -2 -270 11 -270 12 0 16
26 20 150 l5 150 33 -115 c17 -63 32 -125 32 -137 0 -32 10 -53 26 -53 21 0
17 33 -16 136 -41 130 -46 165 -26 214 20 50 21 122 1 159 -14 27 -70 58 -79
43z m50 -58 c10 -25 13 -50 9 -78 -9 -49 -24 -81 -34 -70 -8 9 -2 184 6 184 2
0 11 -16 19 -36z"/>
<path d="M2025 2858 c-3 -13 -4 -135 -2 -273 l2 -250 36 -3 c29 -2 42 3 67 27
17 17 36 47 42 67 17 51 -2 134 -41 179 l-30 33 26 38 c46 68 27 171 -36 193
-46 16 -58 14 -64 -11z m77 -35 c11 -10 18 -30 18 -52 0 -39 -33 -121 -48
-121 -10 0 -22 155 -14 178 6 17 22 15 44 -5z m-7 -221 c24 -17 39 -46 46 -90
9 -62 2 -96 -29 -127 -47 -47 -52 -37 -52 100 0 125 5 140 35 117z"/>
<path d="M2258 2873 c-2 -4 -2 -129 0 -276 l4 -268 51 3 c38 2 52 7 52 18 0
10 -12 16 -37 18 l-38 3 0 115 0 114 25 0 c19 0 25 5 25 21 0 17 -5 20 -25 17
l-25 -5 0 102 0 103 31 6 c18 3 29 11 27 18 -5 14 -84 24 -90 11z"/>
<path d="M2536 2853 c-17 -34 -35 -116 -75 -335 -36 -196 -35 -178 -17 -178 9
0 19 22 28 63 13 57 16 62 38 60 66 -7 69 -9 72 -71 2 -43 7 -57 18 -57 20 0
18 128 -6 368 -19 184 -28 208 -58 150z m28 -185 c3 -56 9 -119 12 -140 l7
-38 -41 0 c-23 0 -43 3 -45 8 -11 16 39 272 52 272 4 0 11 -46 15 -102z"/>
<path d="M2710 2605 c0 -238 2 -275 15 -275 13 0 15 24 15 152 0 93 4 148 9
143 12 -13 61 -183 70 -243 4 -33 11 -48 24 -50 24 -5 22 15 -14 127 -41 128
-46 177 -24 235 34 89 0 186 -67 186 l-28 0 0 -275z m71 196 c4 -59 -4 -97
-22 -116 -19 -19 -19 -19 -19 31 0 28 3 73 7 99 5 43 7 46 20 30 7 -11 14 -30
14 -44z"/>
<path d="M3490 2864 c-11 -13 -10 -16 8 -21 21 -5 22 -11 22 -112 0 -58 3
-163 7 -233 6 -125 6 -128 -15 -128 -33 0 -36 -19 -6 -31 34 -12 107 -2 101
14 -2 7 -13 13 -24 15 -19 3 -20 13 -27 200 -4 108 -10 214 -13 234 -5 34 -3
39 21 48 40 15 31 30 -18 30 -27 0 -48 -6 -56 -16z"/>
<path d="M4151 2862 c-16 -30 -39 -129 -72 -312 -38 -211 -37 -202 -22 -207 7
-3 15 8 19 24 23 103 23 104 52 97 62 -14 61 -12 64 -72 2 -43 7 -57 18 -57
13 0 15 19 13 115 -3 167 -33 430 -49 430 -7 0 -18 -8 -23 -18z m35 -368 c-2
-6 -20 -8 -40 -6 -32 4 -36 7 -36 33 0 34 39 239 48 254 7 11 35 -263 28 -281z"/>
<path d="M4530 2864 c-11 -13 -10 -16 8 -21 21 -5 22 -11 22 -112 0 -58 3
-163 7 -233 6 -125 6 -128 -15 -128 -33 0 -36 -19 -6 -31 34 -12 107 -2 101
14 -2 7 -13 13 -24 15 -19 3 -20 13 -27 200 -4 108 -10 214 -13 234 -5 34 -3
39 21 48 40 15 31 30 -18 30 -27 0 -48 -6 -56 -16z"/>
<path d="M4811 2862 c-16 -30 -39 -129 -72 -312 -38 -211 -37 -202 -22 -207 7
-3 15 8 19 24 23 103 23 104 52 97 64 -14 62 -12 62 -69 0 -54 13 -76 33 -56
7 7 7 58 -1 178 -23 330 -38 406 -71 345z m35 -368 c-2 -6 -20 -8 -40 -6 -32
4 -36 7 -36 33 0 34 39 239 48 254 7 11 35 -263 28 -281z"/>
<path d="M1440 2860 c8 -5 20 -10 25 -10 6 0 3 5 -5 10 -8 5 -19 10 -25 10 -5
0 -3 -5 5 -10z"/>
<path d="M1368 2843 c19 -8 14 -26 -5 -18 -15 5 -16 4 -5 -6 9 -10 15 -10 23
-2 13 13 4 33 -14 32 -9 0 -9 -2 1 -6z"/>
<path d="M1480 2846 c0 -2 14 -6 30 -8 17 -3 30 -1 30 4 0 4 -13 8 -30 8 -16
0 -30 -2 -30 -4z"/>
<path d="M1570 2796 c0 -2 8 -10 18 -17 15 -13 16 -12 3 4 -13 16 -21 21 -21
13z"/>
<path d="M1343 2769 c-67 -19 -48 -59 28 -59 81 0 127 34 80 60 -23 12 -64 12
-108 -1z"/>
<path d="M1530 2761 c0 -6 4 -13 10 -16 6 -3 7 1 4 9 -7 18 -14 21 -14 7z"/>
<path d="M1800 2756 c0 -2 8 -10 18 -17 15 -13 16 -12 3 4 -13 16 -21 21 -21
13z"/>
<path d="M1211 2704 c0 -11 3 -14 6 -6 3 7 2 16 -1 19 -3 4 -6 -2 -5 -13z"/>
<path d="M1643 2703 c8 -8 24 -13 37 -11 17 2 15 5 -15 14 -32 10 -35 10 -22
-3z"/>
<path d="M1241 2692 c-1 -15 -5 -21 -13 -16 -10 5 -10 4 -1 -6 17 -18 26 -8
20 22 l-4 23 -2 -23z"/>
<path d="M1131 2667 c-13 -21 -12 -21 5 -5 10 10 16 20 13 22 -3 3 -11 -5 -18
-17z"/>
<path d="M1508 2668 c-31 -11 -38 -42 -12 -52 41 -16 154 7 154 31 0 31 -82
43 -142 21z"/>
<path d="M1660 2676 c0 -2 8 -10 18 -17 15 -13 16 -12 3 4 -13 16 -21 21 -21
13z"/>
<path d="M1788 2654 c-15 -8 -32 -24 -39 -35 -10 -20 -11 -20 -26 -2 -8 10 -7
4 4 -15 l18 -33 8 30 c7 30 28 47 76 62 20 6 22 7 6 8 -11 0 -32 -6 -47 -15z"/>
<path d="M1860 2666 c0 -2 7 -6 15 -10 8 -3 15 -1 15 4 0 6 -7 10 -15 10 -8 0
-15 -2 -15 -4z"/>
<path d="M1050 2616 c-48 -15 -51 -42 -6 -54 33 -9 76 -5 119 13 18 8 23 30 7
40 -19 12 -86 13 -120 1z"/>
<path d="M1806 2611 c-20 -22 -18 -55 4 -57 9 0 10 1 3 3 -21 7 -15 41 9 57
12 9 18 16 12 16 -6 0 -19 -9 -28 -19z"/>
<path d="M1882 2585 c0 -16 2 -22 5 -12 2 9 2 23 0 30 -3 6 -5 -1 -5 -18z"/>
<path d="M941 2577 c-8 -10 -7 -14 4 -14 8 0 11 5 8 10 -4 6 0 8 10 4 10 -3
17 -2 17 3 0 15 -26 12 -39 -3z"/>
<path d="M1418 2543 c7 -3 16 -2 19 1 4 3 -2 6 -13 5 -11 0 -14 -3 -6 -6z"/>
<path d="M1858 2543 c7 -3 16 -2 19 1 4 3 -2 6 -13 5 -11 0 -14 -3 -6 -6z"/>
<path d="M1219 2523 c-12 -16 -12 -17 1 -6 9 6 36 13 60 16 l45 4 -46 1 c-34
2 -50 -3 -60 -15z"/>
<path d="M2753 2075 c-3 -9 -3 -19 1 -22 3 -4 6 1 6 10 0 8 10 18 23 20 l22 4
-23 2 c-12 0 -25 -6 -29 -14z"/>
<path d="M2992 2068 c-1 -14 -5 -35 -8 -45 -5 -14 -4 -15 5 -7 7 7 11 26 8 45
-3 28 -4 29 -5 7z"/>
<path d="M3071 2083 c0 -6 -4 -20 -7 -30 -5 -14 -4 -15 5 -7 7 7 11 20 8 30
-3 11 -5 14 -6 7z"/>
<path d="M3181 2053 c2 -35 2 -35 6 -8 3 16 10 33 16 37 8 5 6 8 -5 8 -14 0
-18 -8 -17 -37z"/>
<path d="M3250 1995 c0 -84 2 -95 18 -94 10 0 12 3 5 6 -9 3 -13 31 -13 88 0
57 4 85 13 88 7 3 5 6 -5 6 -16 1 -18 -10 -18 -94z"/>
<path d="M3377 2082 c6 -4 13 -25 15 -47 l3 -40 5 48 c5 42 3 47 -15 47 -13 0
-16 -3 -8 -8z"/>
<path d="M3455 2079 c-4 -6 -5 -12 -2 -15 2 -3 7 2 10 11 7 17 1 20 -8 4z"/>
<path d="M3643 2040 c0 -30 2 -43 4 -27 2 15 2 39 0 55 -2 15 -4 2 -4 -28z"/>
<path d="M3692 2000 l1 -95 7 75 c3 41 3 84 -1 95 -4 11 -7 -23 -7 -75z"/>
<path d="M3851 2034 c1 -32 4 -70 9 -84 4 -14 5 11 2 55 -6 95 -12 113 -11 29z"/>
<path d="M4034 2076 c-3 -8 -4 -23 -2 -33 3 -11 6 -6 9 15 6 34 2 42 -7 18z"/>
<path d="M2931 2063 c-1 -12 4 -25 9 -28 12 -7 12 2 0 30 -8 19 -9 19 -9 -2z"/>
<path d="M3751 2058 c0 -14 -4 -35 -7 -45 -5 -17 -5 -17 6 0 6 10 9 30 7 45
l-4 27 -2 -27z"/>
<path d="M3980 2054 c0 -11 -5 -25 -12 -32 -9 -9 -9 -15 -1 -23 7 -7 12 0 17
26 4 20 5 40 2 43 -3 3 -6 -4 -6 -14z"/>
<path d="M2833 2015 c0 -27 2 -38 4 -22 2 15 2 37 0 50 -2 12 -4 0 -4 -28z"/>
<path d="M2881 2044 c0 -11 3 -14 6 -6 3 7 2 16 -1 19 -3 4 -6 -2 -5 -13z"/>
<path d="M3593 1995 c0 -33 2 -45 4 -27 2 18 2 45 0 60 -2 15 -4 0 -4 -33z"/>
<path d="M3083 2005 c0 -22 2 -30 4 -17 2 12 2 30 0 40 -3 9 -5 -1 -4 -23z"/>
<path d="M3051 2004 c0 -11 3 -14 6 -6 3 7 2 16 -1 19 -3 4 -6 -2 -5 -13z"/>
<path d="M3502 1995 c0 -16 2 -22 5 -12 2 9 2 23 0 30 -3 6 -5 -1 -5 -18z"/>
<path d="M3763 1955 c0 -33 2 -45 4 -27 2 18 2 45 0 60 -2 15 -4 0 -4 -33z"/>
<path d="M2966 1975 c-3 -9 -6 -24 -5 -33 0 -9 5 -4 10 12 9 32 6 48 -5 21z"/>
<path d="M3913 1955 c0 -22 2 -30 4 -17 2 12 2 30 0 40 -3 9 -5 -1 -4 -23z"/>
<path d="M1210 1959 c0 -5 5 -7 10 -4 6 3 10 8 10 11 0 2 -4 4 -10 4 -5 0 -10
-5 -10 -11z"/>
<path d="M3452 1950 c0 -14 2 -19 5 -12 2 6 2 18 0 25 -3 6 -5 1 -5 -13z"/>
<path d="M3720 1948 c0 -19 2 -20 10 -8 13 19 13 30 0 30 -5 0 -10 -10 -10
-22z"/>
<path d="M2751 1944 c0 -11 3 -14 6 -6 3 7 2 16 -1 19 -3 4 -6 -2 -5 -13z"/>
<path d="M3041 1944 c0 -11 3 -14 6 -6 3 7 2 16 -1 19 -3 4 -6 -2 -5 -13z"/>
<path d="M3328 1925 c-3 -14 -1 -25 3 -25 5 0 9 11 9 25 0 14 -2 25 -4 25 -2
0 -6 -11 -8 -25z"/>
<path d="M4111 1934 c0 -11 3 -14 6 -6 3 7 2 16 -1 19 -3 4 -6 -2 -5 -13z"/>
<path d="M3191 1924 c0 -11 3 -14 6 -6 3 7 2 16 -1 19 -3 4 -6 -2 -5 -13z"/>
<path d="M4056 1913 c-6 -14 -5 -15 5 -6 7 7 10 15 7 18 -3 3 -9 -2 -12 -12z"/>
<path d="M4146 1913 c-6 -14 -5 -15 5 -6 7 7 10 15 7 18 -3 3 -9 -2 -12 -12z"/>
<path d="M2767 1908 c2 -5 10 -8 18 -8 8 0 16 3 18 8 3 4 -5 7 -18 7 -13 0
-21 -3 -18 -7z"/>
<path d="M1306 1782 c-3 -5 1 -9 9 -9 8 0 12 4 9 9 -3 4 -7 8 -9 8 -2 0 -6 -4
-9 -8z"/>
</g>
</svg>
